<svg width="24" height="24" viewBox="0 0 24 24" fill="none" xmlns="http://www.w3.org/2000/svg">
<path d="M4.35754 20C3.60779 20 3 19.3922 3 18.6425V5.83252C3 4.9228 3.73748 4.18533 4.6472 4.18533C5.28393 4.18533 5.86364 4.55231 6.13604 5.12783L10.4247 14.1887C10.4348 14.2102 10.4565 14.2239 10.4803 14.2239C10.5143 14.2239 10.5419 14.1964 10.5419 14.1624V5.54287C10.5419 4.79312 11.1497 4.18533 11.8994 4.18533C12.6492 4.18533 13.257 4.79312 13.257 5.54287V18.3808C13.257 19.275 12.532 20 11.6377 20C11.0142 20 10.4461 19.642 10.177 19.0795L5.83242 9.99646C5.82217 9.97503 5.80052 9.96139 5.77677 9.96139C5.7427 9.96139 5.71508 9.98901 5.71508 10.0231V18.6425C5.71508 19.3922 5.10729 20 4.35754 20ZM16.0246 15.4903C15.4957 15.4903 15.067 15.0616 15.067 14.5328C15.067 14.004 15.4957 13.5753 16.0246 13.5753H19.7157C20.2445 13.5753 20.6732 14.004 20.6732 14.5328C20.6732 15.0616 20.2445 15.4903 19.7157 15.4903H16.0246ZM17.8575 12.3398C17.2207 12.3398 16.6655 12.1622 16.192 11.8069C15.7228 11.4517 15.3582 10.9755 15.0985 10.3784C14.8429 9.78121 14.7151 9.11712 14.7151 8.3861V7.95367C14.7151 7.23295 14.8429 6.574 15.0985 5.97683C15.3582 5.37452 15.7228 4.89575 16.192 4.54054C16.6655 4.18018 17.2207 4 17.8575 4C18.5028 4 19.0601 4.18018 19.5293 4.54054C19.9986 4.89575 20.361 5.37452 20.6166 5.97683C20.8722 6.574 21 7.23295 21 7.95367V8.3861C21 9.10682 20.8743 9.76834 20.6229 10.3707C20.3715 10.9678 20.0112 11.4466 19.5419 11.8069C19.0726 12.1622 18.5112 12.3398 17.8575 12.3398ZM17.8575 10.1776C18.1969 10.1776 18.4693 10.0154 18.6746 9.69112C18.8841 9.3668 18.9888 8.93179 18.9888 8.3861V7.95367C18.9888 7.40283 18.8862 6.97297 18.6809 6.66409C18.4797 6.35007 18.2053 6.19305 17.8575 6.19305C17.514 6.19305 17.2437 6.35007 17.0468 6.66409C16.8499 6.97297 16.7514 7.40283 16.7514 7.95367V8.3861C16.7514 8.93179 16.8499 9.3668 17.0468 9.69112C17.2479 10.0154 17.5182 10.1776 17.8575 10.1776Z" fill="black"/>
</svg>
