<svg width="24" height="24" viewBox="0 0 24 24" fill="none" xmlns="http://www.w3.org/2000/svg">
<path d="M7.16547 19.849C6.9159 20.5398 6.26023 21 5.52581 21C4.30578 21 3.46306 19.7791 3.89571 18.6383L9.33739 4.29075C9.63206 3.5138 10.3765 3 11.2074 3H12.7838C13.6144 3 14.3586 3.51339 14.6535 4.28989L20.1029 18.6379C20.5361 19.7786 19.6935 21 18.4733 21C17.7393 21 17.084 20.5403 16.8342 19.8501L12.0968 6.76261C12.0813 6.71988 12.0407 6.69141 11.9953 6.69141C11.9498 6.69141 11.9092 6.7199 11.8938 6.76267L7.16547 19.849ZM6.8727 15.252C6.8727 14.5287 7.45901 13.9424 8.18227 13.9424H15.7893C16.5126 13.9424 17.0989 14.5287 17.0989 15.252C17.0989 15.9752 16.5126 16.5615 15.7893 16.5615H8.18227C7.45901 16.5615 6.8727 15.9752 6.8727 15.252Z" fill="black"/>
</svg>
